<?xml version="1.0" encoding="UTF-8" standalone="no"?>
<!-- Created with Inkscape (http://www.inkscape.org/) -->

<svg
   width="1000"
   height="1000"
   viewBox="0 0 1000 1000"
   version="1.1"
   id="svg1"
   xml:space="preserve"
   inkscape:version="1.3.2 (091e20e, 2023-11-25, custom)"
   sodipodi:docname="c.svg"
   style="background-color:#dac9ad;border-radius: 40%; width: 60%; aspect-ratio:1/1"
   xmlns:inkscape="http://www.inkscape.org/namespaces/inkscape"
   xmlns:sodipodi="http://sodipodi.sourceforge.net/DTD/sodipodi-0.dtd"
   xmlns="http://www.w3.org/2000/svg"
   xmlns:svg="http://www.w3.org/2000/svg"><sodipodi:namedview
     id="namedview1"
     pagecolor="red"
     bordercolor="#000000"
     borderopacity="0.25"
     inkscape:showpageshadow="2"
     inkscape:pageopacity="0.0"
     inkscape:pagecheckerboard="0"
     inkscape:deskcolor="#d1d1d1"
     inkscape:document-units="px"
     showguides="true"
     inkscape:zoom="0.58083614"
     inkscape:cx="397.70253"
     inkscape:cy="561.25984"
     inkscape:window-width="1440"
     inkscape:window-height="890"
     inkscape:window-x="-6"
     inkscape:window-y="-6"
     inkscape:window-maximized="1"
     inkscape:current-layer="g17"><sodipodi:guide
       position="0,250"
       orientation="0,1"
       inkscape:label="baseline"
       id="guide2"
       inkscape:locked="false" /><sodipodi:guide
       position="0,1000"
       orientation="0,1"
       inkscape:label="ascender"
       id="guide3"
       inkscape:locked="false" /><sodipodi:guide
       position="0,950"
       orientation="0,1"
       inkscape:label="caps"
       id="guide4"
       inkscape:locked="false" /><sodipodi:guide
       position="0,750"
       orientation="0,1"
       inkscape:label="xheight"
       id="guide5"
       inkscape:locked="false" /><sodipodi:guide
       position="0,0"
       orientation="0,1"
       inkscape:label="descender"
       id="guide6"
       inkscape:locked="false" /><sodipodi:guide
       position="0,250"
       orientation="0,1"
       inkscape:label="baseline"
       id="guide7"
       inkscape:locked="false" /><sodipodi:guide
       position="0,1000"
       orientation="0,1"
       inkscape:label="ascender"
       id="guide8"
       inkscape:locked="false" /><sodipodi:guide
       position="0,950"
       orientation="0,1"
       inkscape:label="caps"
       id="guide9"
       inkscape:locked="false" /><sodipodi:guide
       position="0,750"
       orientation="0,1"
       inkscape:label="xheight"
       id="guide10"
       inkscape:locked="false" /><sodipodi:guide
       position="0,0"
       orientation="0,1"
       inkscape:label="descender"
       id="guide11"
       inkscape:locked="false" /><sodipodi:guide
       position="0,250"
       orientation="0,1"
       inkscape:label="baseline"
       id="guide12"
       inkscape:locked="false" /><sodipodi:guide
       position="0,1000"
       orientation="0,1"
       inkscape:label="ascender"
       id="guide13"
       inkscape:locked="false" /><sodipodi:guide
       position="0,950"
       orientation="0,1"
       inkscape:label="caps"
       id="guide14"
       inkscape:locked="false" /><sodipodi:guide
       position="0,750"
       orientation="0,1"
       inkscape:label="xheight"
       id="guide15"
       inkscape:locked="false" /><sodipodi:guide
       position="0,0"
       orientation="0,1"
       inkscape:label="descender"
       id="guide16"
       inkscape:locked="false" /><sodipodi:guide
       position="499.28023,502.44143"
       orientation="1,0"
       id="guide18"
       inkscape:locked="false" /></sodipodi:namedview><defs
     id="defs1" /><g
     inkscape:label="Layer 1"
     inkscape:groupmode="layer"
     id="layer1"
     style="display:none" /><g
     inkscape:groupmode="layer"
     inkscape:label="GlyphLayer-B"
     style="display:none"
     id="g16" /><g
     inkscape:groupmode="layer"
     inkscape:label="GlyphLayer-B"
     style="display:inline"
     id="g17"><path
       style="fill:#000000"
       d="m 263.80352,785.80857 c -0.41155,-0.4125 -18.82405,-0.975 -40.91667,-1.25 -26.63866,-0.33159 -40.84205,-0.87356 -42.1684,-1.60906 -5.80634,-3.21981 -12.63749,-4.39359 -26.13422,-4.4906 -29.68231,-0.21336 -57.402004,-2.509 -58.171522,-4.81755 -0.19851,-0.59554 -0.885928,-1.08487 -1.527594,-1.08742 -1.719163,-0.007 -7.666667,-5.86076 -7.666667,-7.54605 0,-0.79713 -0.414245,-1.44932 -0.920545,-1.44932 -4.853711,0 -2.176598,-22.04571 3.34799,-27.5703 1.629249,-1.62925 1.249017,-98.3187 -0.42219,-107.35909 -0.55289,-2.99086 -1.050351,-10.41778 -1.105468,-16.50427 -0.05512,-6.08648 -0.484524,-15.34134 -0.954237,-20.56634 -0.469713,-5.225 -1.538585,-16.925 -2.375272,-26 -0.836687,-9.075 -1.964899,-21.675 -2.507139,-28 -0.542239,-6.325 -1.238755,-13.075 -1.547813,-15 -0.567584,-3.53526 -2.367846,-20.413 -5.013249,-47 -0.793511,-7.975 -2.14061,-21.025 -2.993553,-29 -3.151233,-29.46395 -4.595278,-44.98327 -6.001614,-64.5 -2.306156,-32.0042 -4.345033,-55.99278 -5.99205,-70.5 -0.842968,-7.425 -1.985991,-18.88483 -2.540052,-25.46629 -0.554061,-6.58145 -1.450055,-12.40895 -1.991096,-12.95 -1.258939,-1.25893 -1.297856,-28.03029 -0.04411,-30.34728 0.516778,-0.95503 1.186984,-2.86143 1.489346,-4.23643 0.503191,-2.28827 2.16884,-4.53581 8.251724,-11.13444 3.687918,-4.0006 5.248472,-4.9798 8.87399,-5.56814 1.92165,-0.31184 3.73454,-0.95633 4.028643,-1.4322 2.62937,-4.25441 24.416698,6.18339 24.416698,11.69747 0,0.69886 0.5625,1.45815 1.25,1.68731 1.88457,0.62819 1.74181,19.519 -0.15637,20.69214 -1.14277,0.70627 -1.20016,1.68347 -0.30615,5.21352 0.60512,2.38939 1.35855,9.77541 1.67428,16.41339 0.31573,6.63797 1.03498,13.61297 1.59833,15.5 0.58105,1.94635 1.45527,26.36454 2.02034,56.43095 0.54784,29.15 1.61585,67.85 2.37335,86 0.7575,18.15 1.85837,46.5 2.44637,63 0.588,16.5 1.51967,34.725 2.07038,40.5 1.6593,17.40027 2.15574,77.41173 0.92237,111.5 -2.41152,66.6504 -1.66007,78.45682 5.00252,78.59661 2.53252,0.0531 16.75458,0.18539 31.60458,0.29389 26.54729,0.19396 37.8927,1.33788 39.68594,4.00139 0.37726,0.56036 7.57726,1.36609 16,1.79052 47.06808,2.37178 55.47086,2.93625 57.05049,3.83244 0.97954,0.55574 11.22292,1.02193 23.5,1.06953 11.96996,0.0464 24.46357,0.51031 27.76357,1.03089 3.3,0.52057 13.86744,1.37516 23.48321,1.89909 9.61576,0.52392 18.79541,1.41002 20.39922,1.96911 14.80326,5.16045 19.1099,1.54946 19.36358,-16.23577 0.13531,-9.48623 0.70332,-30.2977 1.26226,-46.2477 2.00996,-57.35722 2.81995,-112.97627 1.92234,-132 -0.49307,-10.45 -1.33455,-44.875 -1.86995,-76.5 -0.5354,-31.625 -1.22182,-59.3 -1.52537,-61.5 -3.25724,-23.60681 -8.9204,-183.51489 -6.58201,-185.85327 0.57569,-0.5757 1.04672,-2.09618 1.04672,-3.37885 0,-6.66294 7.22665,-15.57752 15.03343,-18.54478 4.71592,-1.79246 14.96657,-2.37333 14.96657,-0.8481 0,0.48125 1.2375,1.12485 2.75,1.43022 3.05897,0.61759 10.25,6.55997 10.25,8.47018 0,0.67353 0.40122,1.2246 0.89159,1.2246 0.49038,0 1.20106,1.23299 1.57929,2.73999 0.37823,1.50699 1.16664,3.03599 1.75203,3.39778 2.00836,1.24123 2.20955,15.14863 0.27803,19.21901 -2.08541,4.39467 -2.94881,35.85361 -4.3952,160.14322 -0.65806,56.54828 -1.26351,79.78765 -2.20144,84.5 -1.71188,8.60078 -1.81555,131.4655 -0.12108,143.5 0.61983,4.40221 1.43422,30.61077 1.81085,58.27705 0.37645,27.65238 1.07178,50.51644 1.54519,50.80902 0.47341,0.29258 0.86074,2.60263 0.86074,5.13343 0,4.53308 44.29312,6.05856 67.2767,2.31705 3.17719,-0.51721 21.40219,-1.21754 40.5,-1.55627 19.09782,-0.33874 38.97835,-1.04767 44.17896,-1.57541 12.20989,-1.23901 139.04443,-1.22721 149.54434,0.0139 4.4,0.52009 19.475,1.21709 33.5,1.54889 14.025,0.3318 28.425,1.05373 32,1.60429 3.575,0.55057 22.7,1.42253 42.5,1.9377 47.86306,1.24534 80.04258,2.74837 85.26435,3.98249 5.5346,1.30805 24.92842,1.31396 25.73565,0.008 1.30275,-2.10789 8.89868,-1.1129 11.76022,1.54047 7.31785,6.7855 -1.29411,22.44229 -11.00238,20.00265 -1.51681,-0.38117 -7.03284,-1.09421 -12.25784,-1.58455 -5.225,-0.49034 -10.625,-1.14377 -12,-1.45208 -3.12287,-0.70021 -21.25219,-3.1378 -39,-5.24377 -19.78434,-2.34762 -142.10579,-2.30175 -197,0.0739 -37.0905,1.60515 -47.18602,2.27304 -92.5,6.11956 -9.9,0.84037 -25.875,2.19144 -35.5,3.00239 -9.625,0.81094 -24.25,2.19219 -32.5,3.06944 -8.25,0.87724 -21.075,2.23979 -28.5,3.02787 -7.425,0.78809 -19.575,2.09342 -27,2.90073 -7.425,0.80732 -20.475,1.91738 -29,2.46681 -8.525,0.54942 -18.50996,1.53341 -22.18879,2.18664 -4.46183,0.79225 -8.79005,0.89756 -13,0.3163 -3.47117,-0.47925 -9.91121,-0.72711 -14.31121,-0.55078 -11.08944,0.44439 -31.1971,0.30158 -49,-0.34801 -26.78138,-0.97719 -52.83703,-0.80687 -55.8151,0.36485 -3.16109,1.24374 -16.94406,1.51606 -18.09983,0.35761 z"
       id="path18" /></g></svg>
